<?xml version="1.0" standalone="no"?>
<!DOCTYPE svg PUBLIC "-//W3C//DTD SVG 20010904//EN"
 "http://www.w3.org/TR/2001/REC-SVG-20010904/DTD/svg10.dtd">
<svg version="1.0" xmlns="http://www.w3.org/2000/svg"
 width="330.000000pt" height="330.000000pt" viewBox="0 0 330.000000 330.000000"
 preserveAspectRatio="xMidYMid meet">
<metadata>
Created by potrace 1.11, written by Peter Selinger 2001-2013
</metadata>
<g transform="translate(0.000000,330.000000) scale(0.100000,-0.100000)"
fill="#000000" stroke="none">
<path d="M1540 3293 c-8 -2 -34 -14 -58 -26 -123 -60 -173 -214 -108 -333 99
-181 358 -187 460 -10 71 122 22 282 -107 348 -39 19 -152 33 -187 21z"/>
<path d="M350 2468 c-43 -47 -73 -224 -50 -307 28 -104 106 -169 250 -207 57
-15 160 -29 160 -21 0 2 -6 17 -14 33 -8 16 -31 70 -52 119 -87 206 -181 363
-235 390 -36 19 -34 19 -59 -7z"/>
<path d="M2939 2350 c-26 -4 -158 -38 -295 -75 -137 -37 -292 -78 -344 -92
-52 -13 -153 -39 -225 -58 -495 -127 -908 -195 -1220 -199 -80 -1 -139 -6
-138 -12 2 -9 21 -55 49 -120 8 -17 43 -110 79 -205 36 -96 70 -183 75 -194 4
-11 32 -81 60 -155 283 -741 438 -1067 561 -1188 38 -37 95 -58 134 -48 65 16
165 146 240 311 60 131 186 458 312 808 7 20 37 99 67 175 222 562 388 827
616 980 73 50 109 84 83 81 -4 -1 -29 -5 -54 -9z"/>
</g>
</svg>
